<svg xmlns="http://www.w3.org/2000/svg" viewBox="0 0 178.82 141.95"><defs><style>.cls-1{fill:#3cbeb1;}</style></defs><g id="Layer_1" data-name="Layer 1"><path class="cls-1" d="M23.85,167h-13a4.27,4.27,0,0,1-3.6-6.55L41.38,106.7a4.27,4.27,0,0,0,.66-2.28V46.15a4.27,4.27,0,0,1,4.26-4.27h13a4.27,4.27,0,0,1,4.27,4.27V56.82a4.27,4.27,0,0,0,7.84,2.33L92.37,27a4.27,4.27,0,0,1,7.16,0l85.19,132.47a4.26,4.26,0,0,1-3.58,6.57H139.53a4.24,4.24,0,0,1-3.58-2l-44.4-68.8a4.26,4.26,0,0,1,0-4.59l.24-.39A4.26,4.26,0,0,1,99,90.24l40.84,62.67a4.25,4.25,0,0,0,3.57,1.94h9.26a4.27,4.27,0,0,0,3.59-6.56l-56-88a4.27,4.27,0,0,0-7.19,0L24.62,167" transform="translate(-6.59 -25.02)"/></g></svg>