<svg id="Layer_2" data-name="Layer 2" xmlns="http://www.w3.org/2000/svg" viewBox="0 0 425.3 131.92"><defs><style>.cls-1{fill:#3cbeb1;}.cls-2{isolation:isolate;}</style></defs><g id="Layer_1" data-name="Layer 1"><path class="cls-1" d="M13.4,110.6H3.3A3.33,3.33,0,0,1,0,107.3a3.74,3.74,0,0,1,.5-1.8L27.1,63.6a3.45,3.45,0,0,0,.5-1.8V16.4a3.33,3.33,0,0,1,3.3-3.3H41a3.41,3.41,0,0,1,3.4,3.3h0v8.3A3.33,3.33,0,0,0,47.7,28a3.46,3.46,0,0,0,2.8-1.5l16.3-25a3.38,3.38,0,0,1,4.6-1,4.74,4.74,0,0,1,1,1l66.4,103.2a3.29,3.29,0,0,1-1,4.6,3.74,3.74,0,0,1-1.8.5H103.6a3.46,3.46,0,0,1-2.8-1.5L66.2,54.7a3.35,3.35,0,0,1,0-3.6l.2-.3a3.38,3.38,0,0,1,4.6-1,4.74,4.74,0,0,1,1,1l31.8,48.8a3.46,3.46,0,0,0,2.8,1.5h7.2a3.33,3.33,0,0,0,3.3-3.3,4.07,4.07,0,0,0-.5-1.8L72.9,27.5a3.36,3.36,0,0,0-4.6-1,3.18,3.18,0,0,0-1,1L14,110.5" transform="translate(0 0.02)"/></g><g class="cls-2"><path class="cls-1" d="M164,109.1a3.29,3.29,0,0,1-.7-2.4l7-67.6a4.11,4.11,0,0,1,1.2-2.9,4.48,4.48,0,0,1,3-.9h38.4a2.08,2.08,0,0,1,1.9.9,4.91,4.91,0,0,1,.6,2.7v.9q-.15,7.5-3.6,7.5H183.4l-2,18.6h25.3a2.08,2.08,0,0,1,1.9.9,5.06,5.06,0,0,1,.6,2.8v.7a18.43,18.43,0,0,1-.9,5.5,2.76,2.76,0,0,1-2.7,2H180.2L177.9,98h28.5a2.08,2.08,0,0,1,1.9.9,4.91,4.91,0,0,1,.6,2.7v.9a18.43,18.43,0,0,1-.9,5.5,2.76,2.76,0,0,1-2.7,2H166.8A5.06,5.06,0,0,1,164,109.1Z" transform="translate(0 0.02)"/><path class="cls-1" d="M226.8,105.1c-3.9-3.7-5.9-9.3-5.9-17,0-10.2,2.3-18.6,7-25s12-9.7,22.2-9.7a35.23,35.23,0,0,1,11,1.7c3.4,1.1,5.1,2.8,5.2,5a6.59,6.59,0,0,1-.9,2.6,14.05,14.05,0,0,1-2.1,3.1,3.07,3.07,0,0,1-2.2,1.3,2.11,2.11,0,0,1-1.1-.4,8.79,8.79,0,0,1-1-.6,15.11,15.11,0,0,0-3.7-1.5,18.55,18.55,0,0,0-5.2-.6c-5,0-8.8,1.9-11.4,5.6s-4,9.5-4,17.2c0,4.5.9,7.8,2.8,9.9s4.8,3.2,8.8,3.2a22.87,22.87,0,0,0,6.8-.9,53.71,53.71,0,0,0,5.9-2.2,6.29,6.29,0,0,1,2.3-.9c.3,0,.5.1.5.2s.1.5.1,1.2c0,4.5-.6,7.4-1.7,8.7-1.4,1.6-3.7,2.7-6.8,3.4a40,40,0,0,1-8.8,1.1C236.6,110.6,230.7,108.7,226.8,105.1Z" transform="translate(0 0.02)"/><path class="cls-1" d="M278.2,104.7c-3.9-3.9-5.8-9.7-5.8-17.2,0-9.8,2.3-17.9,6.9-24.4s11.9-9.7,21.9-9.7c7.3,0,12.9,2,16.7,6s5.7,9.8,5.7,17.4c0,10.8-2.5,19.1-7.6,25s-12,8.8-20.9,8.8C287.8,110.6,282.1,108.6,278.2,104.7Zm28.3-10.6q3.6-5.85,3.6-16.8c0-4.5-.8-7.8-2.5-10s-4.2-3.2-7.6-3.2c-4.5,0-7.9,2-10.4,6s-3.7,9.6-3.7,16.8c0,8.7,3.4,13.1,10.2,13.1A11.79,11.79,0,0,0,306.5,94.1Z" transform="translate(0 0.02)"/><path class="cls-1" d="M336.8,109.1c-3.4-1-5.2-2.7-5.2-5.4,0-2.9.2-4.9.7-6s.9-1.7,1.4-1.7a18.54,18.54,0,0,1,2.2,1.1,36.32,36.32,0,0,0,4.4,1.9,15.29,15.29,0,0,0,5.4.9,10.48,10.48,0,0,0,6.3-1.7,5.62,5.62,0,0,0,2.3-4.8,5,5,0,0,0-1.2-3.4,7.32,7.32,0,0,0-2.7-2,52.65,52.65,0,0,0-5.2-2.1,22.55,22.55,0,0,1-8.3-5.1c-2.1-2-3.1-5.1-3.1-9.2q0-8.7,5.7-13.5c3.8-3.2,8.7-4.8,14.6-4.8a37.33,37.33,0,0,1,10.1,1.4c3.2,1,4.7,2.4,4.7,4.4a8.55,8.55,0,0,1-1.8,4.3c-1.2,1.8-2.2,2.7-3.1,2.7a5.89,5.89,0,0,1-1.8-.6,22.39,22.39,0,0,0-3.1-1.1,16.08,16.08,0,0,0-4.2-.5,9.74,9.74,0,0,0-5.5,1.3,4.32,4.32,0,0,0-2,3.8,5.13,5.13,0,0,0,1.2,3.5,10.11,10.11,0,0,0,2.8,2.2c1,.5,2.7,1.3,5.2,2.3a24.51,24.51,0,0,1,8.3,5.1c2,2,2.9,4.8,2.9,8.7,0,6-2,10.8-5.9,14.4s-9.1,5.3-15.4,5.3A31.59,31.59,0,0,1,336.8,109.1Z" transform="translate(0 0.02)"/><path class="cls-1" d="M425.3,56a4.33,4.33,0,0,1-.4,1.9l-33.1,71.8c-.7,1.5-2.7,2.2-5.9,2.2h-1.7c-3.4,0-5.1-.6-5.1-1.9a4.85,4.85,0,0,1,.6-2l9.6-19.3L376.7,58.3a12.87,12.87,0,0,1-.3-1.9c0-1.6,2-2.4,6.1-2.4h2.4c3.1,0,4.9.7,5.2,2l5.5,23.4c.6,2.5,1.2,6.2,1.9,11.3h.4c1.2-3.9,2.6-7.7,4-11.3L412.6,56c.6-1.3,2.4-2,5.5-2h1.8C423.5,53.9,425.3,54.6,425.3,56Z" transform="translate(0 0.02)"/></g></svg>