<?xml version="1.0" encoding="utf-8"?>
<!-- Generator: Adobe Illustrator 25.0.1, SVG Export Plug-In . SVG Version: 6.00 Build 0)  -->
<svg version="1.1" id="Layer_2" xmlns="http://www.w3.org/2000/svg" xmlns:xlink="http://www.w3.org/1999/xlink" x="0px" y="0px"
	 viewBox="0 0 425.3 135.3" style="enable-background:new 0 0 425.3 135.3;" xml:space="preserve">
<style type="text/css">
	.st0{fill:#3CBEB1;}
	.st1{enable-background:new    ;}
</style>
<g id="Layer_1">
	<path class="st0" d="M13.4,110.6H3.3c-1.8,0-3.3-1.5-3.3-3.3c0-0.6,0.2-1.3,0.5-1.8l26.6-41.9c0.3-0.5,0.5-1.1,0.5-1.8V16.4
		c0-1.8,1.5-3.3,3.3-3.3h0H41c1.8,0,3.3,1.4,3.4,3.3c0,0,0,0,0,0v8.3c0,1.8,1.5,3.3,3.3,3.3c1.1,0,2.2-0.6,2.8-1.5L66.8,1.5
		c1-1.5,3.1-2,4.6-1c0.4,0.3,0.7,0.6,1,1l66.4,103.2c1,1.5,0.6,3.6-1,4.6c-0.5,0.3-1.2,0.5-1.8,0.5h-32.4c-1.1,0-2.2-0.6-2.8-1.5
		L66.2,54.7c-0.7-1.1-0.7-2.5,0-3.6l0.2-0.3c1-1.5,3.1-2,4.6-1c0.4,0.3,0.7,0.6,1,1l31.8,48.8c0.6,0.9,1.7,1.5,2.8,1.5h7.2
		c1.8,0,3.3-1.5,3.3-3.3c0-0.6-0.2-1.2-0.5-1.8L72.9,27.5c-1-1.5-3-2-4.6-1c-0.4,0.3-0.8,0.6-1,1l-53.3,83"/>
</g>
<g class="st1">
	<path class="st0" d="M164,109.1c-0.5-0.5-0.7-1.3-0.7-2.4l7-67.6c0.1-1.3,0.5-2.3,1.2-2.9c0.7-0.6,1.7-0.9,3-0.9h38.4
		c0.9,0,1.5,0.3,1.9,0.9c0.4,0.6,0.6,1.5,0.6,2.7v0.9c-0.1,5-1.3,7.5-3.6,7.5h-28.4l-2,18.6h25.3c0.9,0,1.5,0.3,1.9,0.9
		c0.4,0.6,0.6,1.5,0.6,2.8v0.7c-0.1,2.3-0.4,4.2-0.9,5.5c-0.5,1.3-1.4,2-2.7,2h-25.4L177.9,98h28.5c0.9,0,1.5,0.3,1.9,0.9
		c0.4,0.6,0.6,1.5,0.6,2.7v0.9c-0.1,2.3-0.4,4.2-0.9,5.5c-0.5,1.3-1.4,2-2.7,2h-38.5C165.4,109.8,164.5,109.6,164,109.1z"/>
	<path class="st0" d="M226.8,105.1c-3.9-3.7-5.9-9.3-5.9-17c0-10.2,2.3-18.6,7-25c4.6-6.5,12-9.7,22.2-9.7c4,0,7.6,0.6,11,1.7
		c3.4,1.1,5.1,2.8,5.2,5c0,0.6-0.3,1.4-0.9,2.6c-0.6,1.2-1.3,2.2-2.1,3.1c-0.8,0.9-1.5,1.3-2.2,1.3c-0.3,0-0.6-0.1-1.1-0.4
		c-0.4-0.2-0.7-0.4-1-0.6c-1.1-0.6-2.4-1.2-3.7-1.5c-1.3-0.4-3.1-0.6-5.2-0.6c-5,0-8.8,1.9-11.4,5.6c-2.7,3.7-4,9.5-4,17.2
		c0,4.5,0.9,7.8,2.8,9.9c1.8,2.1,4.8,3.2,8.8,3.2c2.6,0,4.9-0.3,6.8-0.9c1.9-0.6,3.9-1.3,5.9-2.2c1.1-0.6,1.9-0.9,2.3-0.9
		c0.3,0,0.5,0.1,0.5,0.2c0.1,0.1,0.1,0.5,0.1,1.2c0,4.5-0.6,7.4-1.7,8.7c-1.4,1.6-3.7,2.7-6.8,3.4c-3.1,0.7-6,1.1-8.8,1.1
		C236.6,110.6,230.7,108.7,226.8,105.1z"/>
	<path class="st0" d="M278.2,104.7c-3.9-3.9-5.8-9.7-5.8-17.2c0-9.8,2.3-17.9,6.9-24.4c4.6-6.5,11.9-9.7,21.9-9.7
		c7.3,0,12.9,2,16.7,6c3.8,4,5.7,9.8,5.7,17.4c0,10.8-2.5,19.1-7.6,25c-5.1,5.9-12,8.8-20.9,8.8
		C287.8,110.6,282.1,108.6,278.2,104.7z M306.5,94.1c2.4-3.9,3.6-9.5,3.6-16.8c0-4.5-0.8-7.8-2.5-10c-1.7-2.2-4.2-3.2-7.6-3.2
		c-4.5,0-7.9,2-10.4,6c-2.4,4-3.7,9.6-3.7,16.8c0,8.7,3.4,13.1,10.2,13.1C300.6,99.9,304.1,98,306.5,94.1z"/>
	<path class="st0" d="M336.8,109.1c-3.4-1-5.2-2.7-5.2-5.4c0-2.9,0.2-4.9,0.7-6c0.5-1.1,0.9-1.7,1.4-1.7c0.1,0,0.9,0.4,2.2,1.1
		c1.3,0.7,2.8,1.3,4.4,1.9c1.6,0.6,3.4,0.9,5.4,0.9c2.7,0,4.8-0.6,6.3-1.7c1.5-1.1,2.3-2.7,2.3-4.8c0-1.3-0.4-2.5-1.2-3.4
		c-0.8-0.9-1.7-1.6-2.7-2c-1-0.5-2.7-1.2-5.2-2.1c-3.5-1.3-6.2-3-8.3-5.1c-2.1-2-3.1-5.1-3.1-9.2c0-5.8,1.9-10.3,5.7-13.5
		c3.8-3.2,8.7-4.8,14.6-4.8c3.5,0,6.9,0.5,10.1,1.4c3.2,1,4.7,2.4,4.7,4.4c0,1.1-0.6,2.5-1.8,4.3c-1.2,1.8-2.2,2.7-3.1,2.7
		c-0.3,0-0.9-0.2-1.8-0.6c-0.9-0.4-2-0.8-3.1-1.1c-1.1-0.3-2.5-0.5-4.2-0.5c-2.3,0-4.2,0.4-5.5,1.3c-1.3,0.9-2,2.1-2,3.8
		c0,1.4,0.4,2.6,1.2,3.5c0.8,0.9,1.7,1.6,2.8,2.2c1,0.5,2.7,1.3,5.2,2.3c3.5,1.4,6.3,3.1,8.3,5.1c2,2,2.9,4.8,2.9,8.7
		c0,6-2,10.8-5.9,14.4c-3.9,3.5-9.1,5.3-15.4,5.3C343.6,110.6,340.2,110.1,336.8,109.1z"/>
	<path class="st0" d="M425.3,56c0,0.6-0.1,1.3-0.4,1.9l-33.1,71.8c-0.7,1.5-2.7,2.2-5.9,2.2h-1.7c-3.4,0-5.1-0.6-5.1-1.9
		c0-0.5,0.2-1.2,0.6-2l9.6-19.3l-12.6-50.4c-0.2-1-0.3-1.6-0.3-1.9c0-1.6,2-2.4,6.1-2.4h2.4c3.1,0,4.9,0.7,5.2,2l5.5,23.4
		c0.6,2.5,1.2,6.2,1.9,11.3h0.4c1.2-3.9,2.6-7.7,4-11.3L412.6,56c0.6-1.3,2.4-2,5.5-2h1.8C423.5,53.9,425.3,54.6,425.3,56z"/>
</g>
</svg>
