<svg id="Layer_2" data-name="Layer 2" xmlns="http://www.w3.org/2000/svg" viewBox="0 0 425.3 135.28"><defs><style>.cls-1,.cls-2{fill:#3cbeb1;}.cls-2{font-size:106.46px;font-family:Asap-SemiBoldItalic, Asap;font-weight:600;font-style:italic;}</style></defs><g id="Layer_1" data-name="Layer 1"><path class="cls-1" d="M53,296.87H42.92a3.32,3.32,0,0,1-2.81-5.1l26.57-41.85a3.3,3.3,0,0,0,.52-1.78V202.75a3.32,3.32,0,0,1,3.32-3.32H80.64A3.32,3.32,0,0,1,84,202.75v8.31a3.33,3.33,0,0,0,6.11,1.82L106.4,187.8a3.33,3.33,0,0,1,5.58,0L178.34,291a3.32,3.32,0,0,1-2.79,5.12H143.14a3.32,3.32,0,0,1-2.79-1.53L105.76,241a3.32,3.32,0,0,1,0-3.57l.19-.31a3.33,3.33,0,0,1,5.59,0l31.81,48.82a3.32,3.32,0,0,0,2.78,1.51h7.21a3.32,3.32,0,0,0,2.8-5.1l-43.64-68.53a3.31,3.31,0,0,0-5.59,0L53.63,296.87" transform="translate(-39.59 -186.3)"/></g><text class="cls-2" transform="translate(158.74 109.83)">Ecosy</text></svg>