<?xml version="1.0" encoding="utf-8"?>
<!-- Generator: Adobe Illustrator 25.2.0, SVG Export Plug-In . SVG Version: 6.00 Build 0)  -->
<svg version="1.1" id="Laag_1" xmlns="http://www.w3.org/2000/svg" xmlns:xlink="http://www.w3.org/1999/xlink" x="0px" y="0px"
	 viewBox="0 0 25 25" style="enable-background:new 0 0 25 25;" xml:space="preserve">
<style type="text/css">
	.st0{fill:#FFFFFF;}
</style>
<path class="st0" d="M20,5.5v14c0,1.4-1.1,2.5-2.5,2.5h-8C8.1,22,7,20.9,7,19.5v-1C7,18.2,7.2,18,7.5,18S8,18.2,8,18.5v1
	C8,20.3,8.7,21,9.5,21h8c0.8,0,1.5-0.7,1.5-1.5v-14C19,4.7,18.3,4,17.5,4h-8C8.7,4,8,4.7,8,5.5v1C8,6.8,7.8,7,7.5,7S7,6.8,7,6.5v-1
	C7,4.1,8.1,3,9.5,3h8C18.9,3,20,4.1,20,5.5z M10.5,18c0.1,0,0.1,0,0.2,0c0.2-0.1,0.3-0.3,0.3-0.5V15h5.5c0.3,0,0.5-0.2,0.5-0.5v-4
	c0-0.3-0.2-0.5-0.5-0.5H11V7.5c0-0.2-0.1-0.4-0.3-0.5s-0.4,0-0.5,0.1l-5,5c-0.2,0.2-0.2,0.5,0,0.7l0,0l5,5
	C10.2,17.9,10.4,18,10.5,18z"/>
</svg>
